<?xml version="1.0" encoding="UTF-8" standalone="no"?>
<!DOCTYPE svg PUBLIC "-//W3C//DTD SVG 1.1//EN" "http://www.w3.org/Graphics/SVG/1.1/DTD/svg11.dtd">
<svg width="100%" height="100%" viewBox="0 0 1088 1088" version="1.1" xmlns="http://www.w3.org/2000/svg" xmlns:xlink="http://www.w3.org/1999/xlink" xml:space="preserve" xmlns:serif="http://www.serif.com/" style="fill-rule:evenodd;clip-rule:evenodd;stroke-linejoin:round;stroke-miterlimit:2;">
    <g>
        <g transform="matrix(1.00717,0.269869,-0.269869,1.00717,124.105,-185.025)">
            <ellipse cx="544" cy="465.062" rx="173.364" ry="130.719" style="fill:rgb(235,235,235);"/>
        </g>
        <g transform="matrix(0.676285,0,0,0.748685,229.83,144.476)">
            <path d="M493.546,611.586C520.683,611.789 556.071,609.476 571.675,630.376C586.986,650.885 575.035,681.993 542.834,728.783C533.197,742.788 523.461,755.619 520.513,759.498C516.843,764.328 511.697,763.588 510.859,763.468C510.27,763.383 506.901,762.899 504.52,759.917C504.182,759.495 502.215,757.032 502.873,753.575C502.948,753.18 503.136,752.192 505.097,748.99C509.378,742.002 547.642,680.801 545.994,654.437C545.962,653.933 545.658,649.075 543.68,648.479C537.81,646.71 531.641,646.155 508.77,648.613C488.947,650.743 482.487,651.597 475.647,650.758C458.211,648.62 445.039,636.243 444.625,616.352C444.337,602.469 449.297,582.171 468.759,544.236C469.131,543.511 475.692,530.903 487.147,511.916C496.294,496.754 499.082,492.911 501.584,489.245C510.47,476.223 516.871,467.542 516.9,467.512C518.357,465.976 519.694,464.331 521.33,462.95C522.8,461.709 531.192,454.627 544.867,454.932C551.523,455.08 556.519,457.085 557.462,457.464C558.439,457.856 563.695,459.965 568.35,464.468C569.723,465.796 577.564,473.379 577.227,485.729C577.063,491.741 574.843,496.253 574.424,497.105C572.4,501.22 572.153,501.103 569.144,504.692C560.394,515.128 552.043,525.84 550.592,527.702C548.128,530.864 534.44,547.054 519.897,567.54C516.813,571.884 499.798,594.77 493.546,611.586Z" style="fill:rgb(235,235,235);"/>
        </g>
    </g>
</svg>
